<svg width="21" height="20" viewBox="0 0 21 20" fill="none" xmlns="http://www.w3.org/2000/svg">
<g opacity="0.8">
<path fill-rule="evenodd" clip-rule="evenodd" d="M10.5 3C6.636 3 3.5 6.136 3.5 10C3.5 13.864 6.636 17 10.5 17C14.364 17 17.5 13.864 17.5 10C17.5 6.136 14.364 3 10.5 3ZM9.8 6.50003V9.30003H7V10.7H9.8V13.5H11.2V10.7H14V9.30003H11.2V6.50003H9.8ZM4.89944 10C4.89944 13.087 7.41244 15.6 10.4994 15.6C13.5864 15.6 16.0994 13.087 16.0994 10C16.0994 6.91303 13.5864 4.40003 10.4994 4.40003C7.41244 4.40003 4.89944 6.91303 4.89944 10Z" fill="#f1f0ab" />
</g>
</svg>
